<svg xmlns="http://www.w3.org/2000/svg" viewBox="0 0 446.8 127.5"><defs><style>.a{fill:#e8e8e8;}.b{fill:#f22f46;}</style></defs><title>tw2_inspire</title><path class="a" d="M290.7,4289.9a.9.9,0,0,1-1.5.3c-1.7-1.5-2.2-3.5-1.3-6.9,1.8-7.6,5.8-19.1,8.3-23.8.4-.7.9-.8,1.3-.2s1,3.3-.5,7.1-4.1,11-6.2,18.1a251.1,251.1,0,0,1,17.5-24.4.7.7,0,0,1,1.3,0c1,1.5,1.3,2.7,0,6.5s-3.7,10.8-5.6,18.1c5.1-8.3,14.8-21.1,19.2-25.8.6-.6,1.1-.5,1.2.2s-.3,3.9-2.9,7.3-11.1,14-17.1,23.3c-.4.6-.9.8-1.5.3s-2.3-3.4-1.6-6.9a132.7,132.7,0,0,1,4.2-13.9C300.8,4275,295,4283.2,290.7,4289.9Z" transform="translate(-287.5 -4256.4)"/><path class="a" d="M316.1,4282.9a61.8,61.8,0,0,1,6.4-12.2c.5-.6.8-.7,1.2-.3s1.2,3,0,5.5-3.2,5.6-4.2,8.1-1.1,4.9.5,4.8,5-3.4,6.5-6.9c.3-.5.6-.4.8,0a3.6,3.6,0,0,1-.4,3.1c-1.5,3.1-4.7,5.2-7.5,5.2S314.7,4287,316.1,4282.9Zm11.2-13.1c-.7.7-2.1.6-2.8-.7a3.1,3.1,0,0,1,.3-3.7c.8-.8,2.3-.2,2.9,1.1A3,3,0,0,1,327.3,4269.8Z" transform="translate(-287.5 -4256.4)"/><path class="a" d="M333.4,4272.6a5.4,5.4,0,0,1,1.8-3.9c1.1-1,2.3-1.2,2.7-.7s.3,1-.4,2.2l-.5,1c-.4,4.6.6,8.5.5,12s-.5,4.1-2.3,5.3c3.4-1.2,5.5-4.3,6.7-7,.3-.5.8-.4.9,0a4.5,4.5,0,0,1-.7,3.3,10.5,10.5,0,0,1-8.9,5.5c-2.9.1-5.7-.6-7.4-3.7s-1.1-5.6.6-7,1-.3,1.1.5,0,.8.1,1.2A99.3,99.3,0,0,0,333.4,4272.6Zm-5.3,11.3c.8,2.9,2.2,5,3.8,4.5s1.6-8.6,1.4-12.6A88,88,0,0,1,328.1,4283.9Z" transform="translate(-287.5 -4256.4)"/><path class="a" d="M353.3,4290.2c-4.2,0-5.2-3-3.7-7.4s6-10.1,5.2-10.5-6.2,3-9.1,7.8a65.5,65.5,0,0,0-4.9,9.5c-.2.4-.5.5-.8.2s-1.2-2.3-.2-5.3c1.8-5,12.2-22.6,16.2-27.7.5-.6,1-.6,1.2,0s.5,4-1.4,7.1-3.8,6-6,9.4c2-2,4.7-3.7,6-3.5s3.3,2.7,2,5.3-3.5,5.9-4.7,8.5-1,5.3.9,5.2,4.8-3.7,6.3-6.9a.5.5,0,0,1,.9,0,3.8,3.8,0,0,1-.5,3.1C359.3,4287.7,356.3,4290.2,353.3,4290.2Z" transform="translate(-287.5 -4256.4)"/><path class="a" d="M359.7,4282.9a61.8,61.8,0,0,1,6.4-12.2c.5-.6.8-.7,1.2-.3s1.2,3,0,5.5-3.2,5.6-4.2,8.1-1.1,4.9.5,4.8,5-3.4,6.5-6.9c.3-.5.6-.4.8,0a3.6,3.6,0,0,1-.4,3.1c-1.5,3.1-4.7,5.2-7.5,5.2S358.3,4287,359.7,4282.9Zm11.2-13.1c-.7.7-2.1.6-2.8-.7a3.1,3.1,0,0,1,.3-3.7c.8-.8,2.3-.2,2.9,1.1A3,3,0,0,1,370.9,4269.8Z" transform="translate(-287.5 -4256.4)"/><path class="a" d="M385,4269.8c1.7.3,3.2,2.7,2,5.3s-3.5,5.9-4.7,8.5-1,5.3.8,5.2,4.5-3.4,6.4-6.9c.3-.5.6-.5.9,0s.3,1.7-.5,3.2-4.5,5.4-7.4,5.4-5.2-3.1-3.8-7.5,6-10.2,5.1-10.6-3.4,1.2-6.6,4.7-5.2,8-7.3,12.7c-.2.5-.5.7-1,.2s-1.3-2.7-.5-5.2,4.9-10.1,8-14.8c.3-.5.8-.5,1,0a5.9,5.9,0,0,1,.2,4.8C379.9,4272.3,383.3,4269.6,385,4269.8Z" transform="translate(-287.5 -4256.4)"/><path class="a" d="M399.8,4291.5c-2.7,6.7-6.3,14.7-10.4,16.3a2.2,2.2,0,0,1-2.9-1,6.3,6.3,0,0,1-1-6.2c1.5-4.5,5.8-7.6,10.7-9.5l1.5-3.5a7.4,7.4,0,0,1-5,2.5c-4.6,0-5.5-6.3-1.5-12.3s8-8.1,10.5-8.1a2.9,2.9,0,0,1,3,3.3l1.6-2.8c.4-.7.9-.7,1.3-.3s1.2,3.1-.1,5.5-4.7,9-6.7,13.9a25,25,0,0,0,9-7.5c.3-.4.8-.4.8.1a4.9,4.9,0,0,1-1,2.9C407.6,4288,404,4290,399.8,4291.5Zm-12.3,13.5c.7,1,4.6-4.2,7.9-11.9C388.9,4296.9,386.7,4303.7,387.6,4304.9Zm14.9-32.6c-1.6-.1-5.2,3.1-8,7.5s-3.2,8.7-1.2,8.8,4.5-3.1,7.1-7.5S403.9,4272.4,402.5,4272.3Z" transform="translate(-287.5 -4256.4)"/><path class="a" d="M429.5,4291.3c-2.8,6.7-6.3,14.8-10.5,16.4a2.2,2.2,0,0,1-2.9-1,6.3,6.3,0,0,1-1-6.2c1.5-4.5,5.8-7.5,10.7-9.5l1.5-3.6c-1.5,1.6-3.5,2.9-5.5,2.8-3.6-.3-3.7-4-2.6-7.3a53.4,53.4,0,0,1,6.8-12.7.7.7,0,0,1,1.3,0c1.2,1.6.9,3.7-1,6.7a45.6,45.6,0,0,0-3.8,7.3c-1,2.5-.9,4.2.3,4.3s4.5-3,7-7.4,4.3-8.2,6.1-10.8c.4-.6.8-.7,1.3-.3s1.1,3-.2,5.6-4.6,8.9-6.7,13.8a26.6,26.6,0,0,0,8.9-7.7c.3-.3.7-.4.8.1a4.5,4.5,0,0,1-.9,2.9C437.2,4287.7,433.7,4289.6,429.5,4291.3Zm-12.4,13.6c.7,1,4.8-4.5,7.9-11.9C418.5,4296.8,416.3,4303.6,417.2,4304.9Z" transform="translate(-287.5 -4256.4)"/><path class="a" d="M470.6,4290.3c-3.2,0-4.5-2-4.1-4.9-1.8,2.3-4.3,5-7.2,4.7s-3.7-4-2.6-7.3a25.3,25.3,0,0,1,1.9-4.3,8.8,8.8,0,0,1-4.5.9c-1.2,4.2-4.2,9.2-7.8,10.4a5.5,5.5,0,0,1-6.4-2.2c-2.2-2.9-1.5-7.2.8-11.2s5-6.3,8-6.5a3.5,3.5,0,0,1,3.4,1.7c1.2,1.5,2.6,1.8,2.3,5.5a8.5,8.5,0,0,1-.1,1c2.8,0,5.6-2.4,7.3-5.2l1.9-2.7a.7.7,0,0,1,1.3,0c1.1,1.6.9,3.8-1,6.7a48.6,48.6,0,0,0-3.9,7.3c-1,2.5-.9,4.2.3,4.3s4.8-3.2,7.4-7.6,4.5-8.5,6.1-10.7.9-.7,1.3-.3,1.2,3,0,5.5-3.5,5.9-4.7,8.5-1.1,5,.7,4.8,4.7-3.4,6.6-6.9c.3-.5.6-.5.9,0a4,4,0,0,1-.5,3.1C476.6,4287.8,473.6,4290.3,470.6,4290.3Zm-22.9-16.7a18.2,18.2,0,0,0-3.9,4.8c-2.1,3.8-2.8,8.3-1.5,9.5s4.4-.6,6.9-5.2a26.7,26.7,0,0,0,1.8-4A6.2,6.2,0,0,1,447.8,4273.6Zm2.5.1a3.9,3.9,0,0,0,1.2,3.4,9.6,9.6,0,0,0,.3-3.6C451.5,4271.9,450.4,4272.3,450.2,4273.7Z" transform="translate(-287.5 -4256.4)"/><path class="a" d="M500.4,4290.2c-4.2,0-5.2-3-3.7-7.4s6-10.1,5.2-10.5-6.2,3-9.1,7.8a65.5,65.5,0,0,0-4.9,9.5c-.2.4-.5.5-.8.2s-1.2-2.3-.2-5.3c1.8-5,12.2-22.6,16.2-27.7.5-.6,1-.6,1.2,0s.5,4-1.4,7.1-3.8,6-6,9.4c2-2,4.7-3.7,6-3.5s3.3,2.7,2,5.3-3.5,5.9-4.7,8.5-1,5.3.9,5.2,4.8-3.7,6.3-6.9a.5.5,0,0,1,.9,0,3.8,3.8,0,0,1-.5,3.1C506.4,4287.7,503.3,4290.2,500.4,4290.2Z" transform="translate(-287.5 -4256.4)"/><path class="a" d="M524.7,4270.1q.7-1,1.2-.3c.8.9,1.2,3.1,0,5.6s-3.6,6-4.8,8.7-1.3,5,.4,4.9,4.8-3.5,6.6-7c.3-.5.6-.5.8-.1a4.5,4.5,0,0,1-.5,3.1c-1.3,2.8-4.5,5.5-7.2,5.4s-4.1-1.7-4.1-4.1c-1.6,2-3.9,3.9-6.2,3.9-4.7,0-5.6-6.4-1.5-12.4s8-8.2,10.5-8.2,3.2,1.7,3.1,3.6A35.3,35.3,0,0,1,524.7,4270.1Zm-4,2c-1.6-.2-5.2,3.1-8,7.6s-3.3,8.7-1.3,8.8,4.7-3.2,7.2-7.6S522.1,4272.3,520.7,4272.2Z" transform="translate(-287.5 -4256.4)"/><path class="a" d="M547,4281.9c.3-.7.8-.5,1,0a5,5,0,0,1-.7,3.3,10.6,10.6,0,0,1-8.9,5.4c-3.2.2-5.3-.2-7.1-1.9a5.2,5.2,0,0,1-1.7-3.3c-2.4,4.3-4.9,9.4-7.3,15-.2.5-.5.6-.9.1s-1-2.5,0-5.5c1.5-4.8,9.9-20.7,13.1-24.9.5-.6,1-.5,1.2,0a5.3,5.3,0,0,1,.3,2.3c2.2-1.9,5.2-3.3,7.3-1.1s1.3,7-.5,11.1-3.4,5.7-5.3,6.9C542.4,4288.9,545.4,4285.3,547,4281.9Zm-14.7,5.8c1.6,1.3,4.8-2.4,7.2-7.2s2.5-8.2,1.3-8.8-4.3,1.9-6.7,5.8l-1.7,2.8C531.2,4283.5,530.9,4286.5,532.3,4287.7Z" transform="translate(-287.5 -4256.4)"/><path class="a" d="M566.3,4281.9c.3-.7.8-.5,1,0a5,5,0,0,1-.7,3.3,10.6,10.6,0,0,1-8.9,5.4c-3.2.2-5.3-.2-7.1-1.9a5.2,5.2,0,0,1-1.7-3.3c-2.4,4.3-4.9,9.4-7.3,15-.2.5-.5.6-.9.1s-1-2.5,0-5.5c1.5-4.8,9.9-20.7,13.1-24.9.5-.6,1-.5,1.2,0a5.3,5.3,0,0,1,.3,2.3c2.2-1.9,5.2-3.3,7.3-1.1s1.3,7-.5,11.1-3.4,5.7-5.3,6.9C561.7,4288.9,564.7,4285.3,566.3,4281.9Zm-14.7,5.8c1.6,1.3,4.8-2.4,7.2-7.2s2.5-8.2,1.3-8.8-4.3,1.9-6.7,5.8l-1.7,2.8C550.5,4283.5,550.2,4286.5,551.6,4287.7Z" transform="translate(-287.5 -4256.4)"/><path class="a" d="M575.4,4291.3c-2.8,6.7-6.3,14.8-10.5,16.4a2.2,2.2,0,0,1-2.9-1,6.3,6.3,0,0,1-1-6.2c1.5-4.5,5.8-7.5,10.7-9.5l1.5-3.6c-1.5,1.6-3.5,2.9-5.5,2.8-3.6-.3-3.7-4-2.6-7.3a53.4,53.4,0,0,1,6.8-12.7.7.7,0,0,1,1.3,0c1.2,1.6.9,3.7-1,6.7a45.6,45.6,0,0,0-3.8,7.3c-1,2.5-.9,4.2.3,4.3s4.5-3,7-7.4,4.3-8.2,6.1-10.8c.4-.6.8-.7,1.3-.3s1.1,3-.2,5.6-4.6,8.9-6.7,13.8a26.6,26.6,0,0,0,8.9-7.7c.3-.3.7-.4.8.1a4.5,4.5,0,0,1-.9,2.9C583.1,4287.7,579.6,4289.6,575.4,4291.3Zm-12.4,13.6c.7,1,4.8-4.5,7.9-11.9C564.4,4296.8,562.2,4303.6,563.1,4304.9Z" transform="translate(-287.5 -4256.4)"/><path class="a" d="M608,4290.2c-4.2,0-5.2-3-3.7-7.4s6-10.1,5.2-10.5-6.2,3-9.1,7.8a65.5,65.5,0,0,0-4.9,9.5c-.2.4-.5.5-.8.2s-1.2-2.3-.2-5.3c1.8-5,12.2-22.6,16.2-27.7.5-.6,1-.6,1.2,0s.5,4-1.4,7.1-3.9,6-6,9.4c2-2,4.7-3.7,6-3.5s3.3,2.7,2,5.3-3.5,5.9-4.7,8.5-1,5.3.9,5.2,4.8-3.7,6.3-6.9a.5.5,0,0,1,.9,0,3.8,3.8,0,0,1-.5,3.1C614,4287.7,611,4290.2,608,4290.2Z" transform="translate(-287.5 -4256.4)"/><path class="a" d="M636.3,4288.7c2.4.2,5.9-3.4,7.8-7.2.3-.7.9-.7,1.1,0a4.8,4.8,0,0,1-.5,3c-.6,1.5-4.3,5.7-8.3,5.5s-5.2-2.5-4.1-7.8c.1-.7.3-1.3.5-2h-1.2l-1.7-.2c-1.2,4.1-4.2,8.6-7.6,9.6a5.4,5.4,0,0,1-6.4-2.1c-2.2-3-1.4-7.4.9-11.3s4.9-6.2,7.9-6.5a3.3,3.3,0,0,1,3.4,1.6c1.2,1.6,2.6,1.9,2.4,5.5a14.1,14.1,0,0,1-.2,1.9h3a54.5,54.5,0,0,1,11.8-19.7c.7-.7,1.5-.9,2.1-.2s1.7,3.1,1.1,5.5a27,27,0,0,1-4.7,8.8c-2.1,2.6-4.2,4.7-6.8,5.9C634.6,4284.2,634,4288.5,636.3,4288.7Zm-12.8-15a16.7,16.7,0,0,0-3.9,4.7c-2.1,3.8-2.8,8.4-1.5,9.5s4.5-.6,6.9-5.1a30.5,30.5,0,0,0,1.7-3.9A6.6,6.6,0,0,1,623.5,4273.7Zm4-.1c-.2-1.6-1.2-1.3-1.5.1a4.4,4.4,0,0,0,1.1,3.6A9.8,9.8,0,0,0,627.5,4273.6Zm15.3-2.1c2.2-3.2,4.2-7.6,3.6-8s-4.4,5-7.8,11.5l-1,2.2A22.2,22.2,0,0,0,642.8,4271.5Z" transform="translate(-287.5 -4256.4)"/><path class="a" d="M643.1,4282.9a61.8,61.8,0,0,1,6.4-12.2c.5-.6.8-.7,1.2-.3s1.2,3,0,5.5-3.2,5.6-4.2,8.1-1.1,4.9.5,4.8,5-3.4,6.5-6.9c.3-.5.6-.4.8,0a3.6,3.6,0,0,1-.4,3.1c-1.5,3.1-4.7,5.2-7.5,5.2S641.7,4287,643.1,4282.9Zm11.2-13.1c-.7.7-2.1.6-2.8-.7a3.1,3.1,0,0,1,.3-3.7c.8-.8,2.3-.2,2.9,1.1A3,3,0,0,1,654.3,4269.8Z" transform="translate(-287.5 -4256.4)"/><path class="a" d="M667.2,4288.9c2.1-.1,4.8-3.5,6.5-6.9.3-.5.6-.5.8,0a4.4,4.4,0,0,1-.4,3.1c-1.4,2.8-4.5,5.4-7.2,5.3s-4-1.6-4-4c-1.6,2-3.9,3.9-6.2,3.9-4.7,0-5.6-6.4-1.5-12.4s8-8.1,10.5-8.1,3.1,1.5,3,3.4c2.7-5.2,6.5-12,8.3-14.5.5-.7,1-.7,1.2,0s.5,3.8-1.5,7.6-7.2,12.6-9.7,17.9C665.6,4286.9,665.5,4289,667.2,4288.9Zm-8.7-9.1c-2.7,4.3-3.2,8.7-1.3,8.7s4.7-2.9,7-7.5,3.7-8.7,2.2-8.8S661.3,4275.4,658.5,4279.8Z" transform="translate(-287.5 -4256.4)"/><path class="a" d="M691.1,4270.1q.7-1,1.2-.3c.8.9,1.2,3.1,0,5.6s-3.6,6-4.8,8.7-1.3,5,.4,4.9,4.8-3.5,6.6-7c.3-.5.6-.5.8-.1a4.5,4.5,0,0,1-.5,3.1c-1.3,2.8-4.5,5.5-7.2,5.4s-4.1-1.7-4.1-4.1c-1.6,2-3.9,3.9-6.2,3.9-4.7,0-5.6-6.4-1.5-12.4s8-8.2,10.5-8.2,3.2,1.7,3.1,3.6A35.3,35.3,0,0,1,691.1,4270.1Zm-4,2c-1.6-.2-5.2,3.1-8,7.6s-3.3,8.7-1.3,8.8,4.7-3.2,7.2-7.6S688.6,4272.3,687.1,4272.2Z" transform="translate(-287.5 -4256.4)"/><path class="a" d="M703.2,4291.3c-2.8,6.7-6.3,14.8-10.5,16.4a2.2,2.2,0,0,1-2.9-1,6.3,6.3,0,0,1-1-6.2c1.5-4.5,5.8-7.5,10.7-9.5l1.5-3.6c-1.5,1.6-3.5,2.9-5.5,2.8-3.6-.3-3.7-4-2.6-7.3a53.4,53.4,0,0,1,6.8-12.7.7.7,0,0,1,1.3,0c1.2,1.6.9,3.7-1,6.7a45.6,45.6,0,0,0-3.8,7.3c-1,2.5-.9,4.2.3,4.3s4.5-3,7-7.4,4.3-8.2,6.1-10.8c.4-.6.8-.7,1.3-.3s1.1,3-.2,5.6-4.6,8.9-6.7,13.8a26.6,26.6,0,0,0,8.9-7.7c.3-.3.7-.4.8.1a4.5,4.5,0,0,1-.9,2.9C710.8,4287.7,707.3,4289.6,703.2,4291.3Zm-12.4,13.6c.7,1,4.8-4.5,7.9-11.9C692.2,4296.8,689.9,4303.6,690.8,4304.9Z" transform="translate(-287.5 -4256.4)"/><path class="a" d="M719.9,4272.6a5.4,5.4,0,0,1,1.8-3.9c1.1-1,2.3-1.2,2.7-.7s.3,1-.4,2.2l-.5,1c-.4,4.6.6,8.5.5,12s-.5,4.1-2.3,5.3c3.4-1.2,5.5-4.3,6.7-7,.3-.5.8-.4.9,0a4.5,4.5,0,0,1-.7,3.3,10.5,10.5,0,0,1-8.9,5.5c-2.9.1-5.7-.6-7.4-3.7s-1.1-5.6.6-7,1-.3,1.1.5,0,.8.1,1.2A99.3,99.3,0,0,0,719.9,4272.6Zm-5.3,11.3c.8,2.9,2.2,5,3.8,4.5s1.6-8.6,1.4-12.6A88,88,0,0,1,714.6,4283.9Z" transform="translate(-287.5 -4256.4)"/><path class="a" d="M733.2,4285.5c1,.4,1.3,1.7.8,3s-1.9,2.1-2.9,1.8-1.3-1.8-.7-3S732.2,4285.2,733.2,4285.5Z" transform="translate(-287.5 -4256.4)"/><path class="b" d="M537,4351.7H530a.4.4,0,0,0-.4.4v4.1a.4.4,0,0,0,.4.4H537a.4.4,0,0,0,.4-.4v-4.1a.4.4,0,0,0-.4-.4" transform="translate(-287.5 -4256.4)"/><path class="b" d="M536.9,4357.8H523.3a.5.5,0,0,0-.4.3l-1.7,6.7v.3l-2.1-7.1a.5.5,0,0,0-.5-.3h-5.3a.5.5,0,0,0-.5.3l-2,6.7v0l-.8-3.3-.8-3.3a.5.5,0,0,0-.4-.3H497.8v-5.7a.4.4,0,0,0-.5-.3l-6.7,2.1c-.2.1-.4.2-.4.4v3.6h-1.8a.4.4,0,0,0-.4.4v5.1a.4.4,0,0,0,.4.4h1.8v6.2c0,4.4,2.4,6.5,6.8,6.5a10.9,10.9,0,0,0,4.8-1v-5.3a.3.3,0,0,0-.4-.3,4.5,4.5,0,0,1-1.9.4c-1.2,0-1.8-.5-1.8-1.9v-4.6h3.8a.4.4,0,0,0,.4-.4V4359l5,16.7a.5.5,0,0,0,.5.3H513a.5.5,0,0,0,.5-.3l2.4-7.4,1.2,3.9,1.1,3.5a.5.5,0,0,0,.5.3h5.6a.5.5,0,0,0,.5-.3l5.1-16.8v16.8a.4.4,0,0,0,.4.4h6.8a.4.4,0,0,0,.4-.4v-17.5a.4.4,0,0,0-.4-.4" transform="translate(-287.5 -4256.4)"/><path class="b" d="M545.9,4351.7h-6.8a.4.4,0,0,0-.4.4v23.6a.4.4,0,0,0,.4.4h6.8a.4.4,0,0,0,.4-.4v-23.6a.4.4,0,0,0-.4-.4" transform="translate(-287.5 -4256.4)"/><path class="b" d="M555,4351.7h-7.1a.4.4,0,0,0-.4.4v4.1a.4.4,0,0,0,.4.4H555a.4.4,0,0,0,.4-.4v-4.1a.4.4,0,0,0-.4-.4" transform="translate(-287.5 -4256.4)"/><path class="b" d="M554.8,4357.8H548a.4.4,0,0,0-.4.4v17.5a.4.4,0,0,0,.4.4h6.8a.4.4,0,0,0,.4-.4v-17.5a.4.4,0,0,0-.4-.4" transform="translate(-287.5 -4256.4)"/><path class="b" d="M566.1,4357.4c-6,0-10.2,4.4-10.2,9.5h0c0,5.1,4.2,9.4,10.1,9.4s10.2-4.4,10.2-9.5h0c0-5.1-4.2-9.4-10.1-9.4m2.9,9.6a3,3,0,0,1-2.9,3.1,3.1,3.1,0,0,1-3-3.2h0a3,3,0,0,1,2.9-3.1,3.1,3.1,0,0,1,3,3.2Z" transform="translate(-287.5 -4256.4)"/><path class="b" d="M463.3,4343.9a20,20,0,1,0,20,20,20,20,0,0,0-20-20m0,34.7a14.7,14.7,0,1,1,14.7-14.7,14.7,14.7,0,0,1-14.7,14.7" transform="translate(-287.5 -4256.4)"/><path class="b" d="M464.2,4358.9a4.2,4.2,0,1,1,4.2,4.2,4.2,4.2,0,0,1-4.2-4.2" transform="translate(-287.5 -4256.4)"/><path class="b" d="M464.2,4368.9a4.2,4.2,0,1,1,4.2,4.2,4.2,4.2,0,0,1-4.2-4.2" transform="translate(-287.5 -4256.4)"/><path class="b" d="M454.2,4368.9a4.2,4.2,0,1,1,4.2,4.2,4.2,4.2,0,0,1-4.2-4.2" transform="translate(-287.5 -4256.4)"/><path class="b" d="M454.2,4358.9a4.2,4.2,0,1,1,4.2,4.2,4.2,4.2,0,0,1-4.2-4.2" transform="translate(-287.5 -4256.4)"/><polygon class="b" points="288.7 100.2 287.8 100.2 287.8 99.8 290 99.8 290 100.2 289.1 100.2 289.1 102.8 288.7 102.8 288.7 100.2"/><path class="b" d="M580.2,4357.9c0-.4,0-.9,0-1.3h0l-.4,1.1-.5,1.4H579l-.5-1.4-.3-1.1h0c0,.4,0,.8-.1,1.3v1.3h-.4l.2-2.9h.5l.5,1.4.3,1h0l.3-1,.5-1.4h.5l.2,2.9h-.4Z" transform="translate(-287.5 -4256.4)"/></svg>