<svg xmlns="http://www.w3.org/2000/svg" viewBox="0 0 188.9 100.2"><defs><style>.a{fill:#fff;}</style></defs><title>tw2_inspire</title><path class="a" d="M422.5,114.4c0,1.6,1.1,1.6,1.1,2.3s-.7.9-1.9.9h-2.3c-1.2,0-1.9-.1-1.9-.9s1.1-.7,1.1-2.3V86.9c0-1.6-1.1-1.6-1.1-2.3s.6-.9,1.8-.9h2.9c1.1,0,1.6.2,2,1.2l5.3,14.3V86.9c0-1.6-1.1-1.6-1.1-2.3s.6-.9,1.9-.9h2.3c1.2,0,1.9.1,1.9.9s-1.1.7-1.1,2.3v29.6c0,1.1,0,1.7-.9,1.7h-1.2c-1.4,0-1.4-.3-1.5-2.1a15.4,15.4,0,0,0-1.2-6.3l-6.1-15.5Z" transform="translate(-417.6 -50.8)"/><path class="a" d="M437.9,103.7c0-13.2,3.9-20.6,9-20.6s9,7.4,9,21c0,9-3.5,14.1-9,14.1S437.9,113.1,437.9,103.7Zm11.6-3.4c0-9.7-.3-14.3-2.6-14.3s-2.6,4.6-2.6,14.3.1,14.4,2.6,14.4S449.6,110.2,449.6,100.3Z" transform="translate(-417.6 -50.8)"/><path class="a" d="M466.2,114.4c0,1.6,1.1,1.6,1.1,2.3s-.7.9-1.9.9h-4.1c-1.2,0-1.9-.1-1.9-.9s1.1-.7,1.1-2.3V86.9c0-1.6-1.1-1.6-1.1-2.3s1.6-1.2,4.7-1.2c8,0,12.5,4.9,12.5,13,0,3.8-1.5,6.4-3.9,7.2l2.3,9.8a5.8,5.8,0,0,0,.7,2c.4.6,1,.9,1,1.4s-.5.8-1.5.8H471c-1.1,0-1.7-.3-1.7-.9s1.1-1,1.1-1.7a7,7,0,0,0-.2-1.1l-1.9-9h-2.1Zm0-15.3c0,2.3.3,3.2,1.6,3.2s3.2-2.1,3.2-6c0-6.1-2-9.9-3.5-9.9s-1.3.9-1.3,2.6Z" transform="translate(-417.6 -50.8)"/><path class="a" d="M492,116.7c0,.6-.6.9-1.6.9h-5.1c-1,0-1.6-.3-1.6-.9s1.3-.7,1.3-2.3V88.1c0-1-.4-1.6-1-1.6s-1.3,1.3-2.2,3.6-1.4,3.8-2.4,3.8-1-.5-1-1.3a14.4,14.4,0,0,1,.1-1.8l.8-6.1c.1-1,.4-1.5,1.2-1.5a8.2,8.2,0,0,0,3.4.6h7.6a8.2,8.2,0,0,0,3.4-.6c.8,0,1,.5,1.2,1.5l.8,6.1a14.2,14.2,0,0,1,.1,1.8c0,.9-.4,1.3-1,1.3s-1.4-1.3-2.4-3.8-1.3-3.6-2.2-3.6-1,.6-1,1.6v26.3C490.7,116,492,115.9,492,116.7Z" transform="translate(-417.6 -50.8)"/><path class="a" d="M499.4,84.6c0-.8.6-.9,1.8-.9h4.3c1.2,0,1.8.1,1.8.9s-1.1.7-1.1,2.3v9.5c0,.8.4,1.1,1.1,1.1h1.7c.8,0,1.1-.3,1.1-1.1V86.9c0-1.6-1.1-1.6-1.1-2.3s.7-.9,1.9-.9h4.2c1.2,0,1.9.1,1.9.9s-1.1.7-1.1,2.3v27.5c0,1.6,1.1,1.6,1.1,2.3s-.7.9-1.9.9h-4.2c-1.2,0-1.9-.1-1.9-.9s1.1-.7,1.1-2.3V102c0-.8-.3-1.1-1.1-1.1h-1.7c-.8,0-1.1.3-1.1,1.1v12.4c0,1.6,1.1,1.6,1.1,2.3s-.6.9-1.8.9h-4.3c-1.2,0-1.9-.1-1.9-.9s1.1-.7,1.1-2.3V86.9C500.5,85.3,499.4,85.3,499.4,84.6Z" transform="translate(-417.6 -50.8)"/><path class="a" d="M537.4,116.7c0,.6-.6.9-1.8.9h-4.4c-1.2,0-1.9-.1-1.9-.9s1.1-.7,1.1-2.3V86.9c0-1.6-1.1-1.6-1.1-2.3s1.5-1.2,4.8-1.2,5.9.8,8.1,3.1,3.8,6.4,3.8,11.1-2.7,9.6-7.2,10.2c-2,.2-2.9-.2-2.9,1.8v4.9C536.1,116,537.4,115.9,537.4,116.7Zm-1.3-15.9c0,2.6.3,3.8,1.7,3.8s2.6-2.4,2.6-7.2c0-6.6-1.7-10.6-3.1-10.6s-1.1.9-1.1,2.7Z" transform="translate(-417.6 -50.8)"/><path class="a" d="M548.7,103.7c0-13.2,3.9-20.6,9-20.6s9,7.4,9,21c0,9-3.5,14.1-9,14.1S548.7,113.1,548.7,103.7Zm11.6-3.4c0-9.7-.3-14.3-2.6-14.3s-2.6,4.6-2.6,14.3.1,14.4,2.6,14.4S560.4,110.2,560.4,100.3Z" transform="translate(-417.6 -50.8)"/><path class="a" d="M570.1,116.7c0-.7,1.1-.7,1.1-2.3V86.9c0-1.6-1.1-1.6-1.1-2.3s.6-.9,1.8-.9h4.8c1.1,0,1.7.1,1.7.8s-.3.6-.7.9a1.4,1.4,0,0,0-.8,1.5v24.6c0,2.1,0,2.9,1.6,2.9s2.8-.9,4-2.8,1.9-4.2,3.2-4.2,1.1.4,1.1,1.2a4.7,4.7,0,0,1-.1.8l-1.5,7c-.3,1.3-.8,2-1.4,2a11.7,11.7,0,0,0-3.6-.7H572C570.8,117.6,570.1,117.5,570.1,116.7Z" transform="translate(-417.6 -50.8)"/><path class="a" d="M589.6,116.7c0-.7,1.1-.7,1.1-2.3V86.9c0-1.6-1.1-1.6-1.1-2.3s.6-.9,1.8-.9h8.1a18.5,18.5,0,0,0,3.4-.6c.8,0,.9.6,1.2,1.5l1.3,4.6a10.8,10.8,0,0,1,.4,2.4,1.1,1.1,0,0,1-1.1,1.2c-1.3,0-1.8-1.7-3.2-3.7s-2.6-2.8-3.8-2.8-1.3.6-1.3,2V94c0,1.8.3,2.6,1.1,2.6s1-.4,1.4-1.1.6-1.1,1.5-1.1,1,.4,1.2,1.2l2.2,5.6a4.1,4.1,0,0,1,.4,1.6,1.1,1.1,0,0,1-1.1,1.1,1.7,1.7,0,0,1-1.2-.7c-1.7-2-2.6-3.3-4.2-3.3s-1.3.6-1.3,2.1v9.4c0,2.1,0,2.9,1.6,2.9s2.7-.8,4.1-2.5,2.1-3.6,3.2-3.6,1.1.4,1.1,1.2a2.1,2.1,0,0,1-.1.7l-1.6,6.1c-.3,1.3-.7,2-1.4,2a11.7,11.7,0,0,0-3.6-.7h-8.3C590.3,117.6,589.6,117.5,589.6,116.7Z" transform="translate(-417.6 -50.8)"/><path class="a" d="M477.9,135h4.8l1.7,1.7v6l-1.7,1.7h-3.3V151h-1.5Zm4.1,8.2.9-.9v-5l-.9-.9h-2.6v6.9Z" transform="translate(-417.6 -50.8)"/><path class="a" d="M488.6,135h5.1l1.7,1.7v5.5l-1.5,1.5,1.6,7.3h-1.5l-1.5-7.1h-2.2V151h-1.5Zm4.3,7.6.9-.9v-4.5l-.9-.9h-2.8v6.3Z" transform="translate(-417.6 -50.8)"/><path class="a" d="M499.8,149.3V136.7l1.7-1.7h3.4l1.7,1.7v12.6l-1.7,1.7h-3.4Zm4.4.4.9-.9V137.2l-.9-.9h-1.9l-.9.9v11.6l.9.9Z" transform="translate(-417.6 -50.8)"/><path class="a" d="M510.3,149.7h2l.9-.9V135h1.5v14.3l-1.7,1.7h-2.7Z" transform="translate(-417.6 -50.8)"/><path class="a" d="M519.6,135h5.7v1.3h-4.2v6H525v1.3h-3.9v6.1h4.2V151h-5.7Z" transform="translate(-417.6 -50.8)"/><path class="a" d="M529.3,149.3V136.7L531,135h3.1l1.7,1.7v2.8h-1.5v-2.2l-.9-.9h-1.6l-.9.9v11.6l.9.9h1.6l.9-.9v-2.3h1.5v2.8l-1.7,1.7H531Z" transform="translate(-417.6 -50.8)"/><path class="a" d="M541.8,136.3H539V135h7.1v1.3h-2.8V151h-1.5Z" transform="translate(-417.6 -50.8)"/><path class="a" d="M500.7,52h-2.8V50.8H505V52h-2.8V66.8h-1.5Z" transform="translate(-417.6 -50.8)"/><path class="a" d="M508.8,50.8h1.5v7.3H514V50.8h1.5v16H514V59.5h-3.7v7.2h-1.5Z" transform="translate(-417.6 -50.8)"/><path class="a" d="M520.4,50.8H526V52h-4.2v6h3.9v1.3h-3.9v6.1h4.2v1.3h-5.7Z" transform="translate(-417.6 -50.8)"/></svg>