<svg id="North_Pole_Logo" data-name="North Pole Logo" xmlns="http://www.w3.org/2000/svg" viewBox="0 0 204.1 100.2"><defs><style>.cls-1{fill:#fff;}</style></defs><title>sp-logo</title><path class="cls-1" d="M477.9,135h4.8l1.7,1.7v6l-1.7,1.7h-3.3V151h-1.5Zm4.1,8.2.9-.9v-5l-.9-.9h-2.6v6.9Z" transform="translate(-411.1 -50.8)"/><path class="cls-1" d="M488.6,135h5.1l1.7,1.7v5.5l-1.5,1.5,1.6,7.3h-1.5l-1.5-7.1h-2.2V151h-1.5Zm4.3,7.6.9-.9v-4.5l-.9-.9h-2.8v6.3Z" transform="translate(-411.1 -50.8)"/><path class="cls-1" d="M499.8,149.3V136.7l1.7-1.7h3.4l1.7,1.7v12.6l-1.7,1.7h-3.4Zm4.4.4.9-.9V137.2l-.9-.9h-1.9l-.9.9v11.6l.9.9Z" transform="translate(-411.1 -50.8)"/><path class="cls-1" d="M510.3,149.7h2l.9-.9V135h1.5v14.3l-1.7,1.7h-2.7Z" transform="translate(-411.1 -50.8)"/><path class="cls-1" d="M519.6,135h5.7v1.3h-4.2v6H525v1.3h-3.9v6.1h4.2V151h-5.7Z" transform="translate(-411.1 -50.8)"/><path class="cls-1" d="M529.3,149.3V136.7L531,135h3.1l1.7,1.7v2.8h-1.5v-2.2l-.9-.9h-1.6l-.9.9v11.6l.9.9h1.6l.9-.9v-2.3h1.5v2.8l-1.7,1.7H531Z" transform="translate(-411.1 -50.8)"/><path class="cls-1" d="M541.8,136.3H539V135h7.1v1.3h-2.8V151h-1.5Z" transform="translate(-411.1 -50.8)"/><path class="cls-1" d="M500.7,52h-2.8V50.8H505V52h-2.8V66.8h-1.5Z" transform="translate(-411.1 -50.8)"/><path class="cls-1" d="M508.8,50.8h1.5v7.3H514V50.8h1.5v16H514V59.5h-3.7v7.2h-1.5Z" transform="translate(-411.1 -50.8)"/><path class="cls-1" d="M520.4,50.8H526V52h-4.2v6h3.9v1.3h-3.9v6.1h4.2v1.3h-5.7Z" transform="translate(-411.1 -50.8)"/><path class="cls-1" d="M411.1,108c0-1.1.4-1.7,1.2-1.7s1.4,1,2.1,3,1.7,4.8,3.5,4.8,2.8-1.9,2.8-5.5a11.8,11.8,0,0,0-.4-3.4c-.9-2.7-2.4-3.9-3.9-5.3s-4.5-4.8-4.5-8.8,2.9-8,6.7-8a9.8,9.8,0,0,1,2.3.5,8.9,8.9,0,0,1,1.6-.4c.6,0,.9.7,1.1,2.1l.7,3.9a8.5,8.5,0,0,1,.1,1.6c0,1.1-.4,1.7-1.3,1.7s-1.2-1.2-1.9-3.1-1.5-3.3-2.8-3.3-1.8,1.1-1.8,3a5.4,5.4,0,0,0,2.2,4.5c1.5,1.4,3.7,2.6,5.3,4.8a14,14,0,0,1,2.7,8.4c0,6.8-3.4,11-8.1,11a9,9,0,0,1-3-.9c-.6,0-1.2.6-1.9.6s-1.1-.8-1.4-2.2l-1-6.2A5.9,5.9,0,0,1,411.1,108Z" transform="translate(-411.1 -50.8)"/><path class="cls-1" d="M439,116.5c0-.7,1-.9,1-1.9v-.3l-.2-1.8c-.1-.8-.7-.9-1.6-.9h-1.7c-1,0-1.5.1-1.6.9l-.3,1.8v.3c0,1.1,1.1,1.3,1.1,1.9s-.6.9-1.8.9h-3.6c-.9,0-1.3,0-1.3-.9s.7-.9,1-1.2.5-1.1.7-2.5l4.7-27.3c.2-1.3.5-1.8,1.7-1.8h1.5c1.2,0,1.5.5,1.7,1.8l4.9,26.7a8.1,8.1,0,0,0,.8,2.9c.3.4.9.6.9,1.3s-.4.9-1.3.9h-5C439.6,117.4,439,117.3,439,116.5Zm-3.6-9.1c0,.8.3,1,1.7,1s1.7-.2,1.7-1.1a5.5,5.5,0,0,0,0-.8l-1.3-11.7c0-.3-.1-.5-.3-.5s-.2.2-.3.5l-1.4,11.5A8.7,8.7,0,0,0,435.4,107.3Z" transform="translate(-411.1 -50.8)"/><path class="cls-1" d="M454.7,114.2c0,1.6,1.1,1.6,1.1,2.3s-.7.9-1.8.9h-2.2c-1.2,0-1.8-.1-1.8-.9s1.1-.7,1.1-2.3V86.9c0-1.6-1.1-1.6-1.1-2.3s.6-.9,1.8-.9h2.8c1.1,0,1.5.2,1.9,1.2l5.2,14.2V86.9c0-1.6-1.1-1.6-1.1-2.3s.6-.9,1.8-.9h2.2c1.2,0,1.8.1,1.8.9s-1.1.7-1.1,2.3v29.4c0,1.1,0,1.7-.8,1.7h-1.2c-1.4,0-1.4-.3-1.5-2.1a15.4,15.4,0,0,0-1.2-6.3l-6-15.4Z" transform="translate(-411.1 -50.8)"/><path class="cls-1" d="M482.5,116.5c0,.6-.6.9-1.6.9h-5c-1,0-1.5-.3-1.5-.9s1.3-.7,1.3-2.3V88.1c0-1-.4-1.6-.9-1.6s-1.3,1.3-2.2,3.5-1.4,3.7-2.3,3.7-.9-.5-.9-1.3a14.3,14.3,0,0,1,.1-1.8l.8-6c.1-1,.4-1.5,1.2-1.5a8,8,0,0,0,3.3.6h7.5a8,8,0,0,0,3.3-.6c.7,0,1,.5,1.2,1.5l.8,6a14.3,14.3,0,0,1,.1,1.8c0,.9-.4,1.3-.9,1.3s-1.4-1.3-2.3-3.7-1.3-3.5-2.2-3.5-.9.6-.9,1.6v26.1C481.3,115.8,482.5,115.7,482.5,116.5Z" transform="translate(-411.1 -50.8)"/><path class="cls-1" d="M496.1,116.5c0-.7,1-.9,1-1.9v-.3l-.2-1.8c-.1-.8-.7-.9-1.6-.9h-1.7c-1,0-1.5.1-1.6.9l-.3,1.8v.3c0,1.1,1.1,1.3,1.1,1.9s-.6.9-1.8.9h-3.6c-.9,0-1.3,0-1.3-.9s.7-.9,1-1.2.5-1.1.7-2.5l4.7-27.3c.2-1.3.5-1.8,1.7-1.8h1.5c1.2,0,1.5.5,1.7,1.8l4.9,26.7a8.1,8.1,0,0,0,.8,2.9c.3.4.9.6.9,1.3s-.4.9-1.3.9h-5C496.6,117.4,496.1,117.3,496.1,116.5Zm-3.6-9.1c0,.8.3,1,1.7,1s1.7-.2,1.7-1.1a5.5,5.5,0,0,0,0-.8l-1.3-11.7c0-.3-.1-.5-.3-.5s-.2.2-.3.5l-1.4,11.5A8.7,8.7,0,0,0,492.5,107.3Z" transform="translate(-411.1 -50.8)"/><path class="cls-1" d="M523.5,116.5c0,.6-.6.9-1.7.9h-4.3c-1.2,0-1.8-.1-1.8-.9s1.1-.7,1.1-2.3V86.9c0-1.6-1.1-1.6-1.1-2.3s1.5-1.2,4.7-1.2,5.8.8,8,3,3.7,6.4,3.7,11-2.7,9.6-7,10.1c-1.9.2-2.9-.2-2.9,1.8v4.8C522.2,115.8,523.5,115.7,523.5,116.5Zm-1.3-15.8c0,2.6.3,3.7,1.6,3.7s2.6-2.4,2.6-7.2c0-6.6-1.7-10.5-3.1-10.5s-1.1.9-1.1,2.6Z" transform="translate(-411.1 -50.8)"/><path class="cls-1" d="M535.6,84.7c0-.8.6-.9,1.8-.9h4.2c1.2,0,1.8.1,1.8.9s-1.1.7-1.1,2.3v9.4c0,.8.4,1.1,1.1,1.1h1.7c.7,0,1.1-.3,1.1-1.1V86.9c0-1.6-1.1-1.6-1.1-2.3s.7-.9,1.8-.9h4.2c1.2,0,1.8.1,1.8.9s-1.1.7-1.1,2.3v27.3c0,1.6,1.1,1.6,1.1,2.3s-.7.9-1.8.9h-4.2c-1.2,0-1.8-.1-1.8-.9s1.1-.7,1.1-2.3V101.9c0-.8-.3-1.1-1.1-1.1h-1.7c-.7,0-1.1.3-1.1,1.1v12.3c0,1.6,1.1,1.6,1.1,2.3s-.6.9-1.8.9h-4.2c-1.2,0-1.8-.1-1.8-.9s1.1-.7,1.1-2.3V86.9C536.7,85.4,535.6,85.4,535.6,84.7Z" transform="translate(-411.1 -50.8)"/><path class="cls-1" d="M556.7,103.6c0-13.1,3.8-20.4,8.9-20.4s8.9,7.4,8.9,20.8c0,8.9-3.5,14-8.9,14S556.7,112.9,556.7,103.6Zm11.4-3.4c0-9.6-.3-14.2-2.6-14.2s-2.6,4.6-2.6,14.2.1,14.2,2.6,14.2S568.1,110,568.1,100.2Z" transform="translate(-411.1 -50.8)"/><path class="cls-1" d="M582.9,114.2c0,1.6,1.1,1.6,1.1,2.3s-.7.9-1.8.9h-2.2c-1.2,0-1.8-.1-1.8-.9s1.1-.7,1.1-2.3V86.9c0-1.6-1.1-1.6-1.1-2.3s.6-.9,1.8-.9h2.8c1.1,0,1.5.2,1.9,1.2l5.2,14.2V86.9c0-1.6-1.1-1.6-1.1-2.3s.6-.9,1.8-.9h2.2c1.2,0,1.8.1,1.8.9s-1.1.7-1.1,2.3v29.4c0,1.1,0,1.7-.8,1.7h-1.2c-1.4,0-1.4-.3-1.5-2.1a15.4,15.4,0,0,0-1.2-6.3l-6-15.4Z" transform="translate(-411.1 -50.8)"/><path class="cls-1" d="M598.7,116.5c0-.7,1.1-.7,1.1-2.3V86.9c0-1.6-1.1-1.6-1.1-2.3s.6-.9,1.8-.9h7.9a18,18,0,0,0,3.4-.6c.8,0,.9.6,1.2,1.5l1.3,4.6a10.8,10.8,0,0,1,.4,2.4,1.1,1.1,0,0,1-1.1,1.2c-1.3,0-1.7-1.7-3.1-3.6s-2.6-2.7-3.7-2.7-1.3.6-1.3,2V94c0,1.8.3,2.6,1.1,2.6s1-.4,1.4-1.1.6-1.1,1.5-1.1.9.4,1.2,1.2l2.2,5.5a4.1,4.1,0,0,1,.4,1.6,1.1,1.1,0,0,1-1.1,1.1,1.7,1.7,0,0,1-1.2-.7c-1.6-1.9-2.6-3.3-4.1-3.3s-1.3.6-1.3,2.1v9.4c0,2.1,0,2.8,1.6,2.8s2.7-.8,4-2.5,2.1-3.5,3.1-3.5,1.1.4,1.1,1.2a2.1,2.1,0,0,1-.1.7l-1.5,6.1c-.3,1.3-.7,2-1.4,2a11.4,11.4,0,0,0-3.6-.7h-8.2C599.3,117.4,598.7,117.3,598.7,116.5Z" transform="translate(-411.1 -50.8)"/></svg>